<?xml version="1.0" standalone="no"?><!DOCTYPE svg PUBLIC "-//W3C//DTD SVG 1.1//EN" "http://www.w3.org/Graphics/SVG/1.1/DTD/svg11.dtd"><svg t="1525228112898" class="icon" style="" viewBox="0 0 1024 1024" version="1.1" xmlns="http://www.w3.org/2000/svg" p-id="1928" xmlns:xlink="http://www.w3.org/1999/xlink" width="200" height="200"><defs><style type="text/css"></style></defs><path d="M895.624702 474.087529 512.07419 110.994953l-383.698892 363.326912 16.363689 37.678134 69.502957 0c-0.466628 2.77623-0.721431 5.624091-0.721431 8.532327l0 341.27978c0 28.279067 22.929222 51.192939 51.200102 51.192939l187.705056 0L452.425671 657.044444l119.448486 0 0 255.960603 187.703009 0c28.272927 0 51.192939-22.914896 51.192939-51.192939L810.770106 520.532327c0-2.908236-0.255827-5.756097-0.721431-8.532327l68.437695 0L895.624702 474.087529zM759.576143 469.340411l0 392.471696L623.06505 861.812107 623.06505 639.980813c0-18.8493-15.271822-34.129308-34.134425-34.129308L435.361017 605.851505c-18.847254 0-34.128285 15.280008-34.128285 34.129308l0 221.831294L264.720615 861.812107 264.720615 469.340411l-51.291177 0 301.462936-290.088888 313.025273 290.088888L759.576143 469.340411z" p-id="1929" fill="#282828"></path></svg>
